<svg xmlns="http://www.w3.org/2000/svg" viewBox="0 0 520 420" role="img" aria-labelledby="title desc">
  <title id="title">Learning path</title>
  <desc id="desc">A flat illustration of connected learning steps.</desc>
  <rect width="520" height="420" fill="#fff"/>
  <ellipse cx="260" cy="350" rx="170" ry="26" fill="#e4f4f2"/>
  <path d="M100 292c44-80 103-116 176-105 67 10 116-28 154-92" fill="none" stroke="#bde8e4" stroke-width="24" stroke-linecap="round"/>
  <path d="M100 292c44-80 103-116 176-105 67 10 116-28 154-92" fill="none" stroke="#009286" stroke-width="5" stroke-dasharray="12 15" stroke-linecap="round"/>
  <rect x="66" y="246" width="108" height="78" rx="18" fill="#f6fffe" stroke="#80cbc4" stroke-width="3"/>
  <rect x="206" y="150" width="108" height="78" rx="18" fill="#fff8e1" stroke="#f4bd36" stroke-width="3"/>
  <rect x="350" y="58" width="108" height="78" rx="18" fill="#f6fffe" stroke="#80cbc4" stroke-width="3"/>
  <circle cx="120" cy="285" r="20" fill="#009286"/>
  <circle cx="260" cy="189" r="20" fill="#f4bd36"/>
  <circle cx="404" cy="97" r="20" fill="#009286"/>
  <path d="M111 284l7 7 14-18" fill="none" stroke="#fff" stroke-width="6" stroke-linecap="round" stroke-linejoin="round"/>
  <path d="M252 190h18M261 181v18" stroke="#fff" stroke-width="6" stroke-linecap="round"/>
  <path d="M393 98h22" stroke="#fff" stroke-width="6" stroke-linecap="round"/>
  <circle cx="94" cy="88" r="34" fill="#fff0bd"/>
  <circle cx="440" cy="270" r="46" fill="#d9f4f1"/>
</svg>
