<svg xmlns="http://www.w3.org/2000/svg" viewBox="0 0 520 420" role="img" aria-labelledby="title desc">
  <title id="title">Testing and publish</title>
  <desc id="desc">A flat illustration of tests passing and a package launching to the cloud.</desc>
  <rect width="520" height="420" fill="#fff"/>
  <ellipse cx="260" cy="350" rx="178" ry="28" fill="#e4f4f2"/>
  <rect x="88" y="92" width="164" height="180" rx="24" fill="#f6fffe" stroke="#80cbc4" stroke-width="4"/>
  <path d="M124 146l14 14 30-40" fill="none" stroke="#009286" stroke-width="10" stroke-linecap="round" stroke-linejoin="round"/>
  <path d="M124 206l14 14 30-40" fill="none" stroke="#009286" stroke-width="10" stroke-linecap="round" stroke-linejoin="round"/>
  <rect x="188" y="138" width="36" height="10" rx="5" fill="#f4bd36"/>
  <rect x="188" y="198" width="36" height="10" rx="5" fill="#80cbc4"/>
  <path d="M328 256c-17-18-14-48 8-62 17-10 38-3 48 14 24-4 46 15 46 39 0 25-21 43-46 43h-92c-26 0-48-20-48-44 0-19 13-35 31-40 7 18 24 31 44 31 3 0 6 0 9-1z" fill="#dff7f4" stroke="#009286" stroke-width="3"/>
  <path d="M340 226v-72" stroke="#f4bd36" stroke-width="10" stroke-linecap="round"/>
  <path d="M312 178l28-28 28 28" fill="none" stroke="#f4bd36" stroke-width="10" stroke-linecap="round" stroke-linejoin="round"/>
  <rect x="300" y="92" width="82" height="54" rx="14" fill="#fff8e1" stroke="#f4bd36" stroke-width="3"/>
  <circle cx="420" cy="98" r="34" fill="#d9f4f1"/>
</svg>
