<svg xmlns="http://www.w3.org/2000/svg" viewBox="0 0 520 420" role="img" aria-labelledby="title desc">
  <title id="title">Development setup</title>
  <desc id="desc">A flat illustration of tools around a workstation.</desc>
  <rect width="520" height="420" fill="#fff"/>
  <ellipse cx="268" cy="350" rx="176" ry="28" fill="#e4f4f2"/>
  <rect x="128" y="78" width="264" height="170" rx="24" fill="#f6fffe" stroke="#80cbc4" stroke-width="4"/>
  <rect x="154" y="106" width="210" height="26" rx="13" fill="#dff7f4"/>
  <rect x="154" y="156" width="80" height="12" rx="6" fill="#009286"/>
  <rect x="154" y="184" width="150" height="12" rx="6" fill="#f4bd36"/>
  <rect x="154" y="212" width="116" height="12" rx="6" fill="#80cbc4"/>
  <path d="M238 248h44l10 60h-64z" fill="#20455f"/>
  <rect x="196" y="302" width="128" height="18" rx="9" fill="#16354b"/>
  <circle cx="408" cy="120" r="42" fill="#fff0bd"/>
  <path d="M395 121l12 12 26-34" fill="none" stroke="#009286" stroke-width="9" stroke-linecap="round" stroke-linejoin="round"/>
  <rect x="76" y="236" width="82" height="82" rx="22" fill="#fff8e1" stroke="#f4bd36" stroke-width="3"/>
  <path d="M100 278h34M117 261v34" stroke="#009286" stroke-width="8" stroke-linecap="round"/>
  <rect x="364" y="250" width="78" height="62" rx="18" fill="#f6fffe" stroke="#80cbc4" stroke-width="3"/>
  <path d="M386 282h34" stroke="#f4bd36" stroke-width="8" stroke-linecap="round"/>
</svg>
